<?xml version="1.0" encoding="utf-8" standalone="no"?>
<!DOCTYPE svg PUBLIC "-//W3C//DTD SVG 1.1//EN"
  "http://www.w3.org/Graphics/SVG/1.1/DTD/svg11.dtd">
<svg xmlns:xlink="http://www.w3.org/1999/xlink" width="576pt" height="432pt" viewBox="0 0 576 432" xmlns="http://www.w3.org/2000/svg" version="1.1">
 <metadata>
  <rdf:RDF xmlns:dc="http://purl.org/dc/elements/1.1/" xmlns:cc="http://creativecommons.org/ns#" xmlns:rdf="http://www.w3.org/1999/02/22-rdf-syntax-ns#">
   <cc:Work>
    <dc:type rdf:resource="http://purl.org/dc/dcmitype/StillImage"/>
    <dc:date>2024-10-17T10:26:13.853014</dc:date>
    <dc:format>image/svg+xml</dc:format>
    <dc:creator>
     <cc:Agent>
      <dc:title>Matplotlib v3.9.2, https://matplotlib.org/</dc:title>
     </cc:Agent>
    </dc:creator>
   </cc:Work>
  </rdf:RDF>
 </metadata>
 <defs>
  <style type="text/css">*{stroke-linejoin: round; stroke-linecap: butt}</style>
 </defs>
 <g id="figure_1">
  <g id="patch_1">
   <path d="M 0 432 
L 576 432 
L 576 0 
L 0 0 
z
" style="fill: #ffffff"/>
  </g>
  <g id="axes_1">
   <g id="patch_2">
    <path d="M 72 384.48 
L 518.4 384.48 
L 518.4 51.84 
L 72 51.84 
z
" style="fill: #ffffff"/>
   </g>
   <g id="matplotlib.axis_1">
    <g id="xtick_1">
     <g id="line2d_1">
      <defs>
       <path id="mf172b0962b" d="M 0 0 
L 0 3.5 
" style="stroke: #000000; stroke-width: 0.8"/>
      </defs>
      <g>
       <use xlink:href="#mf172b0962b" x="146.4" y="384.48" style="stroke: #000000; stroke-width: 0.8"/>
      </g>
     </g>
     <g id="text_1">
      <!-- medical -->
      <g transform="translate(125.72625 400.069375) scale(0.12 -0.12)">
       <defs>
        <path id="ArialMT-6d" d="M 422 0 
L 422 3319 
L 925 3319 
L 925 2853 
Q 1081 3097 1340 3245 
Q 1600 3394 1931 3394 
Q 2300 3394 2536 3241 
Q 2772 3088 2869 2813 
Q 3263 3394 3894 3394 
Q 4388 3394 4653 3120 
Q 4919 2847 4919 2278 
L 4919 0 
L 4359 0 
L 4359 2091 
Q 4359 2428 4304 2576 
Q 4250 2725 4106 2815 
Q 3963 2906 3769 2906 
Q 3419 2906 3187 2673 
Q 2956 2441 2956 1928 
L 2956 0 
L 2394 0 
L 2394 2156 
Q 2394 2531 2256 2718 
Q 2119 2906 1806 2906 
Q 1569 2906 1367 2781 
Q 1166 2656 1075 2415 
Q 984 2175 984 1722 
L 984 0 
L 422 0 
z
" transform="scale(0.015625)"/>
        <path id="ArialMT-65" d="M 2694 1069 
L 3275 997 
Q 3138 488 2766 206 
Q 2394 -75 1816 -75 
Q 1088 -75 661 373 
Q 234 822 234 1631 
Q 234 2469 665 2931 
Q 1097 3394 1784 3394 
Q 2450 3394 2872 2941 
Q 3294 2488 3294 1666 
Q 3294 1616 3291 1516 
L 816 1516 
Q 847 969 1125 678 
Q 1403 388 1819 388 
Q 2128 388 2347 550 
Q 2566 713 2694 1069 
z
M 847 1978 
L 2700 1978 
Q 2663 2397 2488 2606 
Q 2219 2931 1791 2931 
Q 1403 2931 1139 2672 
Q 875 2413 847 1978 
z
" transform="scale(0.015625)"/>
        <path id="ArialMT-64" d="M 2575 0 
L 2575 419 
Q 2259 -75 1647 -75 
Q 1250 -75 917 144 
Q 584 363 401 755 
Q 219 1147 219 1656 
Q 219 2153 384 2558 
Q 550 2963 881 3178 
Q 1213 3394 1622 3394 
Q 1922 3394 2156 3267 
Q 2391 3141 2538 2938 
L 2538 4581 
L 3097 4581 
L 3097 0 
L 2575 0 
z
M 797 1656 
Q 797 1019 1065 703 
Q 1334 388 1700 388 
Q 2069 388 2326 689 
Q 2584 991 2584 1609 
Q 2584 2291 2321 2609 
Q 2059 2928 1675 2928 
Q 1300 2928 1048 2622 
Q 797 2316 797 1656 
z
" transform="scale(0.015625)"/>
        <path id="ArialMT-69" d="M 425 3934 
L 425 4581 
L 988 4581 
L 988 3934 
L 425 3934 
z
M 425 0 
L 425 3319 
L 988 3319 
L 988 0 
L 425 0 
z
" transform="scale(0.015625)"/>
        <path id="ArialMT-63" d="M 2588 1216 
L 3141 1144 
Q 3050 572 2676 248 
Q 2303 -75 1759 -75 
Q 1078 -75 664 370 
Q 250 816 250 1647 
Q 250 2184 428 2587 
Q 606 2991 970 3192 
Q 1334 3394 1763 3394 
Q 2303 3394 2647 3120 
Q 2991 2847 3088 2344 
L 2541 2259 
Q 2463 2594 2264 2762 
Q 2066 2931 1784 2931 
Q 1359 2931 1093 2626 
Q 828 2322 828 1663 
Q 828 994 1084 691 
Q 1341 388 1753 388 
Q 2084 388 2306 591 
Q 2528 794 2588 1216 
z
" transform="scale(0.015625)"/>
        <path id="ArialMT-61" d="M 2588 409 
Q 2275 144 1986 34 
Q 1697 -75 1366 -75 
Q 819 -75 525 192 
Q 231 459 231 875 
Q 231 1119 342 1320 
Q 453 1522 633 1644 
Q 813 1766 1038 1828 
Q 1203 1872 1538 1913 
Q 2219 1994 2541 2106 
Q 2544 2222 2544 2253 
Q 2544 2597 2384 2738 
Q 2169 2928 1744 2928 
Q 1347 2928 1158 2789 
Q 969 2650 878 2297 
L 328 2372 
Q 403 2725 575 2942 
Q 747 3159 1072 3276 
Q 1397 3394 1825 3394 
Q 2250 3394 2515 3294 
Q 2781 3194 2906 3042 
Q 3031 2891 3081 2659 
Q 3109 2516 3109 2141 
L 3109 1391 
Q 3109 606 3145 398 
Q 3181 191 3288 0 
L 2700 0 
Q 2613 175 2588 409 
z
M 2541 1666 
Q 2234 1541 1622 1453 
Q 1275 1403 1131 1340 
Q 988 1278 909 1158 
Q 831 1038 831 891 
Q 831 666 1001 516 
Q 1172 366 1500 366 
Q 1825 366 2078 508 
Q 2331 650 2450 897 
Q 2541 1088 2541 1459 
L 2541 1666 
z
" transform="scale(0.015625)"/>
        <path id="ArialMT-6c" d="M 409 0 
L 409 4581 
L 972 4581 
L 972 0 
L 409 0 
z
" transform="scale(0.015625)"/>
       </defs>
       <use xlink:href="#ArialMT-6d"/>
       <use xlink:href="#ArialMT-65" x="83.300781"/>
       <use xlink:href="#ArialMT-64" x="138.916016"/>
       <use xlink:href="#ArialMT-69" x="194.53125"/>
       <use xlink:href="#ArialMT-63" x="216.748047"/>
       <use xlink:href="#ArialMT-61" x="266.748047"/>
       <use xlink:href="#ArialMT-6c" x="322.363281"/>
      </g>
     </g>
    </g>
    <g id="xtick_2">
     <g id="line2d_2">
      <g>
       <use xlink:href="#mf172b0962b" x="295.2" y="384.48" style="stroke: #000000; stroke-width: 0.8"/>
      </g>
     </g>
     <g id="text_2">
      <!-- financial -->
      <g transform="translate(273.1875 400.069375) scale(0.12 -0.12)">
       <defs>
        <path id="ArialMT-66" d="M 556 0 
L 556 2881 
L 59 2881 
L 59 3319 
L 556 3319 
L 556 3672 
Q 556 4006 616 4169 
Q 697 4388 901 4523 
Q 1106 4659 1475 4659 
Q 1713 4659 2000 4603 
L 1916 4113 
Q 1741 4144 1584 4144 
Q 1328 4144 1222 4034 
Q 1116 3925 1116 3625 
L 1116 3319 
L 1763 3319 
L 1763 2881 
L 1116 2881 
L 1116 0 
L 556 0 
z
" transform="scale(0.015625)"/>
        <path id="ArialMT-6e" d="M 422 0 
L 422 3319 
L 928 3319 
L 928 2847 
Q 1294 3394 1984 3394 
Q 2284 3394 2536 3286 
Q 2788 3178 2913 3003 
Q 3038 2828 3088 2588 
Q 3119 2431 3119 2041 
L 3119 0 
L 2556 0 
L 2556 2019 
Q 2556 2363 2490 2533 
Q 2425 2703 2258 2804 
Q 2091 2906 1866 2906 
Q 1506 2906 1245 2678 
Q 984 2450 984 1813 
L 984 0 
L 422 0 
z
" transform="scale(0.015625)"/>
       </defs>
       <use xlink:href="#ArialMT-66"/>
       <use xlink:href="#ArialMT-69" x="27.783203"/>
       <use xlink:href="#ArialMT-6e" x="50"/>
       <use xlink:href="#ArialMT-61" x="105.615234"/>
       <use xlink:href="#ArialMT-6e" x="161.230469"/>
       <use xlink:href="#ArialMT-63" x="216.845703"/>
       <use xlink:href="#ArialMT-69" x="266.845703"/>
       <use xlink:href="#ArialMT-61" x="289.0625"/>
       <use xlink:href="#ArialMT-6c" x="344.677734"/>
      </g>
     </g>
    </g>
    <g id="xtick_3">
     <g id="line2d_3">
      <g>
       <use xlink:href="#mf172b0962b" x="444" y="384.48" style="stroke: #000000; stroke-width: 0.8"/>
      </g>
     </g>
     <g id="text_3">
      <!-- legal -->
      <g transform="translate(431.324063 400.069375) scale(0.12 -0.12)">
       <defs>
        <path id="ArialMT-67" d="M 319 -275 
L 866 -356 
Q 900 -609 1056 -725 
Q 1266 -881 1628 -881 
Q 2019 -881 2231 -725 
Q 2444 -569 2519 -288 
Q 2563 -116 2559 434 
Q 2191 0 1641 0 
Q 956 0 581 494 
Q 206 988 206 1678 
Q 206 2153 378 2554 
Q 550 2956 876 3175 
Q 1203 3394 1644 3394 
Q 2231 3394 2613 2919 
L 2613 3319 
L 3131 3319 
L 3131 450 
Q 3131 -325 2973 -648 
Q 2816 -972 2473 -1159 
Q 2131 -1347 1631 -1347 
Q 1038 -1347 672 -1080 
Q 306 -813 319 -275 
z
M 784 1719 
Q 784 1066 1043 766 
Q 1303 466 1694 466 
Q 2081 466 2343 764 
Q 2606 1063 2606 1700 
Q 2606 2309 2336 2618 
Q 2066 2928 1684 2928 
Q 1309 2928 1046 2623 
Q 784 2319 784 1719 
z
" transform="scale(0.015625)"/>
       </defs>
       <use xlink:href="#ArialMT-6c"/>
       <use xlink:href="#ArialMT-65" x="22.216797"/>
       <use xlink:href="#ArialMT-67" x="77.832031"/>
       <use xlink:href="#ArialMT-61" x="133.447266"/>
       <use xlink:href="#ArialMT-6c" x="189.0625"/>
      </g>
     </g>
    </g>
   </g>
   <g id="matplotlib.axis_2">
    <g id="ytick_1">
     <g id="line2d_4">
      <defs>
       <path id="m67ed2f60c7" d="M 0 0 
L -3.5 0 
" style="stroke: #000000; stroke-width: 0.8"/>
      </defs>
      <g>
       <use xlink:href="#m67ed2f60c7" x="72" y="344.16" style="stroke: #000000; stroke-width: 0.8"/>
      </g>
     </g>
     <g id="text_4">
      <!-- 20 -->
      <g transform="translate(51.65375 348.454687) scale(0.12 -0.12)">
       <defs>
        <path id="ArialMT-32" d="M 3222 541 
L 3222 0 
L 194 0 
Q 188 203 259 391 
Q 375 700 629 1000 
Q 884 1300 1366 1694 
Q 2113 2306 2375 2664 
Q 2638 3022 2638 3341 
Q 2638 3675 2398 3904 
Q 2159 4134 1775 4134 
Q 1369 4134 1125 3890 
Q 881 3647 878 3216 
L 300 3275 
Q 359 3922 746 4261 
Q 1134 4600 1788 4600 
Q 2447 4600 2831 4234 
Q 3216 3869 3216 3328 
Q 3216 3053 3103 2787 
Q 2991 2522 2730 2228 
Q 2469 1934 1863 1422 
Q 1356 997 1212 845 
Q 1069 694 975 541 
L 3222 541 
z
" transform="scale(0.015625)"/>
        <path id="ArialMT-30" d="M 266 2259 
Q 266 3072 433 3567 
Q 600 4063 929 4331 
Q 1259 4600 1759 4600 
Q 2128 4600 2406 4451 
Q 2684 4303 2865 4023 
Q 3047 3744 3150 3342 
Q 3253 2941 3253 2259 
Q 3253 1453 3087 958 
Q 2922 463 2592 192 
Q 2263 -78 1759 -78 
Q 1097 -78 719 397 
Q 266 969 266 2259 
z
M 844 2259 
Q 844 1131 1108 757 
Q 1372 384 1759 384 
Q 2147 384 2411 759 
Q 2675 1134 2675 2259 
Q 2675 3391 2411 3762 
Q 2147 4134 1753 4134 
Q 1366 4134 1134 3806 
Q 844 3388 844 2259 
z
" transform="scale(0.015625)"/>
       </defs>
       <use xlink:href="#ArialMT-32"/>
       <use xlink:href="#ArialMT-30" x="55.615234"/>
      </g>
     </g>
    </g>
    <g id="ytick_2">
     <g id="line2d_5">
      <g>
       <use xlink:href="#m67ed2f60c7" x="72" y="293.76" style="stroke: #000000; stroke-width: 0.8"/>
      </g>
     </g>
     <g id="text_5">
      <!-- 40 -->
      <g transform="translate(51.65375 298.054688) scale(0.12 -0.12)">
       <defs>
        <path id="ArialMT-34" d="M 2069 0 
L 2069 1097 
L 81 1097 
L 81 1613 
L 2172 4581 
L 2631 4581 
L 2631 1613 
L 3250 1613 
L 3250 1097 
L 2631 1097 
L 2631 0 
L 2069 0 
z
M 2069 1613 
L 2069 3678 
L 634 1613 
L 2069 1613 
z
" transform="scale(0.015625)"/>
       </defs>
       <use xlink:href="#ArialMT-34"/>
       <use xlink:href="#ArialMT-30" x="55.615234"/>
      </g>
     </g>
    </g>
    <g id="ytick_3">
     <g id="line2d_6">
      <g>
       <use xlink:href="#m67ed2f60c7" x="72" y="243.36" style="stroke: #000000; stroke-width: 0.8"/>
      </g>
     </g>
     <g id="text_6">
      <!-- 60 -->
      <g transform="translate(51.65375 247.654687) scale(0.12 -0.12)">
       <defs>
        <path id="ArialMT-36" d="M 3184 3459 
L 2625 3416 
Q 2550 3747 2413 3897 
Q 2184 4138 1850 4138 
Q 1581 4138 1378 3988 
Q 1113 3794 959 3422 
Q 806 3050 800 2363 
Q 1003 2672 1297 2822 
Q 1591 2972 1913 2972 
Q 2475 2972 2870 2558 
Q 3266 2144 3266 1488 
Q 3266 1056 3080 686 
Q 2894 316 2569 119 
Q 2244 -78 1831 -78 
Q 1128 -78 684 439 
Q 241 956 241 2144 
Q 241 3472 731 4075 
Q 1159 4600 1884 4600 
Q 2425 4600 2770 4297 
Q 3116 3994 3184 3459 
z
M 888 1484 
Q 888 1194 1011 928 
Q 1134 663 1356 523 
Q 1578 384 1822 384 
Q 2178 384 2434 671 
Q 2691 959 2691 1453 
Q 2691 1928 2437 2201 
Q 2184 2475 1800 2475 
Q 1419 2475 1153 2201 
Q 888 1928 888 1484 
z
" transform="scale(0.015625)"/>
       </defs>
       <use xlink:href="#ArialMT-36"/>
       <use xlink:href="#ArialMT-30" x="55.615234"/>
      </g>
     </g>
    </g>
    <g id="ytick_4">
     <g id="line2d_7">
      <g>
       <use xlink:href="#m67ed2f60c7" x="72" y="192.96" style="stroke: #000000; stroke-width: 0.8"/>
      </g>
     </g>
     <g id="text_7">
      <!-- 80 -->
      <g transform="translate(51.65375 197.254687) scale(0.12 -0.12)">
       <defs>
        <path id="ArialMT-38" d="M 1131 2484 
Q 781 2613 612 2850 
Q 444 3088 444 3419 
Q 444 3919 803 4259 
Q 1163 4600 1759 4600 
Q 2359 4600 2725 4251 
Q 3091 3903 3091 3403 
Q 3091 3084 2923 2848 
Q 2756 2613 2416 2484 
Q 2838 2347 3058 2040 
Q 3278 1734 3278 1309 
Q 3278 722 2862 322 
Q 2447 -78 1769 -78 
Q 1091 -78 675 323 
Q 259 725 259 1325 
Q 259 1772 486 2073 
Q 713 2375 1131 2484 
z
M 1019 3438 
Q 1019 3113 1228 2906 
Q 1438 2700 1772 2700 
Q 2097 2700 2305 2904 
Q 2513 3109 2513 3406 
Q 2513 3716 2298 3927 
Q 2084 4138 1766 4138 
Q 1444 4138 1231 3931 
Q 1019 3725 1019 3438 
z
M 838 1322 
Q 838 1081 952 856 
Q 1066 631 1291 507 
Q 1516 384 1775 384 
Q 2178 384 2440 643 
Q 2703 903 2703 1303 
Q 2703 1709 2433 1975 
Q 2163 2241 1756 2241 
Q 1359 2241 1098 1978 
Q 838 1716 838 1322 
z
" transform="scale(0.015625)"/>
       </defs>
       <use xlink:href="#ArialMT-38"/>
       <use xlink:href="#ArialMT-30" x="55.615234"/>
      </g>
     </g>
    </g>
    <g id="ytick_5">
     <g id="line2d_8">
      <g>
       <use xlink:href="#m67ed2f60c7" x="72" y="142.56" style="stroke: #000000; stroke-width: 0.8"/>
      </g>
     </g>
     <g id="text_8">
      <!-- 100 -->
      <g transform="translate(44.980625 146.854687) scale(0.12 -0.12)">
       <defs>
        <path id="ArialMT-31" d="M 2384 0 
L 1822 0 
L 1822 3584 
Q 1619 3391 1289 3197 
Q 959 3003 697 2906 
L 697 3450 
Q 1169 3672 1522 3987 
Q 1875 4303 2022 4600 
L 2384 4600 
L 2384 0 
z
" transform="scale(0.015625)"/>
       </defs>
       <use xlink:href="#ArialMT-31"/>
       <use xlink:href="#ArialMT-30" x="55.615234"/>
       <use xlink:href="#ArialMT-30" x="111.230469"/>
      </g>
     </g>
    </g>
    <g id="ytick_6">
     <g id="line2d_9">
      <g>
       <use xlink:href="#m67ed2f60c7" x="72" y="92.16" style="stroke: #000000; stroke-width: 0.8"/>
      </g>
     </g>
     <g id="text_9">
      <!-- 120 -->
      <g transform="translate(44.980625 96.454687) scale(0.12 -0.12)">
       <use xlink:href="#ArialMT-31"/>
       <use xlink:href="#ArialMT-32" x="55.615234"/>
       <use xlink:href="#ArialMT-30" x="111.230469"/>
      </g>
     </g>
    </g>
   </g>
   <g id="patch_3">
    <path d="M 124.08 263.52 
L 168.72 263.52 
L 168.72 182.88 
L 124.08 182.88 
L 124.08 263.52 
z
" clip-path="url(#p862b0d5ff1)" style="fill: #2a557f; stroke: #000000; stroke-linejoin: miter"/>
   </g>
   <g id="line2d_10">
    <path d="M 146.4 263.52 
L 146.4 366.84 
" clip-path="url(#p862b0d5ff1)" style="fill: none; stroke: #000000; stroke-linecap: square"/>
   </g>
   <g id="line2d_11">
    <path d="M 146.4 182.88 
L 146.4 89.64 
" clip-path="url(#p862b0d5ff1)" style="fill: none; stroke: #000000; stroke-linecap: square"/>
   </g>
   <g id="line2d_12">
    <path d="M 135.24 366.84 
L 157.56 366.84 
" clip-path="url(#p862b0d5ff1)" style="fill: none; stroke: #000000; stroke-linecap: square"/>
   </g>
   <g id="line2d_13">
    <path d="M 135.24 89.64 
L 157.56 89.64 
" clip-path="url(#p862b0d5ff1)" style="fill: none; stroke: #000000; stroke-linecap: square"/>
   </g>
   <g id="line2d_14"/>
   <g id="patch_4">
    <path d="M 272.88 362.43 
L 317.52 362.43 
L 317.52 346.68 
L 272.88 346.68 
L 272.88 362.43 
z
" clip-path="url(#p862b0d5ff1)" style="fill: #ffcd6e; stroke: #000000; stroke-linejoin: miter"/>
   </g>
   <g id="line2d_15">
    <path d="M 295.2 362.43 
L 295.2 369.36 
" clip-path="url(#p862b0d5ff1)" style="fill: none; stroke: #000000; stroke-linecap: square"/>
   </g>
   <g id="line2d_16">
    <path d="M 295.2 346.68 
L 295.2 324 
" clip-path="url(#p862b0d5ff1)" style="fill: none; stroke: #000000; stroke-linecap: square"/>
   </g>
   <g id="line2d_17">
    <path d="M 284.04 369.36 
L 306.36 369.36 
" clip-path="url(#p862b0d5ff1)" style="fill: none; stroke: #000000; stroke-linecap: square"/>
   </g>
   <g id="line2d_18">
    <path d="M 284.04 324 
L 306.36 324 
" clip-path="url(#p862b0d5ff1)" style="fill: none; stroke: #000000; stroke-linecap: square"/>
   </g>
   <g id="line2d_19">
    <defs>
     <path id="m0ff876d234" d="M 0 3 
C 0.795609 3 1.55874 2.683901 2.12132 2.12132 
C 2.683901 1.55874 3 0.795609 3 0 
C 3 -0.795609 2.683901 -1.55874 2.12132 -2.12132 
C 1.55874 -2.683901 0.795609 -3 0 -3 
C -0.795609 -3 -1.55874 -2.683901 -2.12132 -2.12132 
C -2.683901 -1.55874 -3 -0.795609 -3 0 
C -3 0.795609 -2.683901 1.55874 -2.12132 2.12132 
C -1.55874 2.683901 -0.795609 3 0 3 
z
" style="stroke: #000000"/>
    </defs>
    <g clip-path="url(#p862b0d5ff1)">
     <use xlink:href="#m0ff876d234" x="295.2" y="303.84" style="fill-opacity: 0; stroke: #000000"/>
     <use xlink:href="#m0ff876d234" x="295.2" y="321.48" style="fill-opacity: 0; stroke: #000000"/>
     <use xlink:href="#m0ff876d234" x="295.2" y="321.48" style="fill-opacity: 0; stroke: #000000"/>
     <use xlink:href="#m0ff876d234" x="295.2" y="301.32" style="fill-opacity: 0; stroke: #000000"/>
     <use xlink:href="#m0ff876d234" x="295.2" y="303.84" style="fill-opacity: 0; stroke: #000000"/>
     <use xlink:href="#m0ff876d234" x="295.2" y="321.48" style="fill-opacity: 0; stroke: #000000"/>
     <use xlink:href="#m0ff876d234" x="295.2" y="311.4" style="fill-opacity: 0; stroke: #000000"/>
     <use xlink:href="#m0ff876d234" x="295.2" y="278.64" style="fill-opacity: 0; stroke: #000000"/>
     <use xlink:href="#m0ff876d234" x="295.2" y="316.44" style="fill-opacity: 0; stroke: #000000"/>
     <use xlink:href="#m0ff876d234" x="295.2" y="273.6" style="fill-opacity: 0; stroke: #000000"/>
     <use xlink:href="#m0ff876d234" x="295.2" y="321.48" style="fill-opacity: 0; stroke: #000000"/>
     <use xlink:href="#m0ff876d234" x="295.2" y="293.76" style="fill-opacity: 0; stroke: #000000"/>
     <use xlink:href="#m0ff876d234" x="295.2" y="291.24" style="fill-opacity: 0; stroke: #000000"/>
     <use xlink:href="#m0ff876d234" x="295.2" y="313.92" style="fill-opacity: 0; stroke: #000000"/>
     <use xlink:href="#m0ff876d234" x="295.2" y="311.4" style="fill-opacity: 0; stroke: #000000"/>
     <use xlink:href="#m0ff876d234" x="295.2" y="316.44" style="fill-opacity: 0; stroke: #000000"/>
     <use xlink:href="#m0ff876d234" x="295.2" y="321.48" style="fill-opacity: 0; stroke: #000000"/>
     <use xlink:href="#m0ff876d234" x="295.2" y="313.92" style="fill-opacity: 0; stroke: #000000"/>
     <use xlink:href="#m0ff876d234" x="295.2" y="286.2" style="fill-opacity: 0; stroke: #000000"/>
     <use xlink:href="#m0ff876d234" x="295.2" y="311.4" style="fill-opacity: 0; stroke: #000000"/>
     <use xlink:href="#m0ff876d234" x="295.2" y="301.32" style="fill-opacity: 0; stroke: #000000"/>
     <use xlink:href="#m0ff876d234" x="295.2" y="286.2" style="fill-opacity: 0; stroke: #000000"/>
     <use xlink:href="#m0ff876d234" x="295.2" y="311.4" style="fill-opacity: 0; stroke: #000000"/>
     <use xlink:href="#m0ff876d234" x="295.2" y="321.48" style="fill-opacity: 0; stroke: #000000"/>
     <use xlink:href="#m0ff876d234" x="295.2" y="318.96" style="fill-opacity: 0; stroke: #000000"/>
     <use xlink:href="#m0ff876d234" x="295.2" y="273.6" style="fill-opacity: 0; stroke: #000000"/>
     <use xlink:href="#m0ff876d234" x="295.2" y="283.68" style="fill-opacity: 0; stroke: #000000"/>
     <use xlink:href="#m0ff876d234" x="295.2" y="278.64" style="fill-opacity: 0; stroke: #000000"/>
     <use xlink:href="#m0ff876d234" x="295.2" y="306.36" style="fill-opacity: 0; stroke: #000000"/>
     <use xlink:href="#m0ff876d234" x="295.2" y="308.88" style="fill-opacity: 0; stroke: #000000"/>
     <use xlink:href="#m0ff876d234" x="295.2" y="301.32" style="fill-opacity: 0; stroke: #000000"/>
     <use xlink:href="#m0ff876d234" x="295.2" y="308.88" style="fill-opacity: 0; stroke: #000000"/>
     <use xlink:href="#m0ff876d234" x="295.2" y="283.68" style="fill-opacity: 0; stroke: #000000"/>
     <use xlink:href="#m0ff876d234" x="295.2" y="281.16" style="fill-opacity: 0; stroke: #000000"/>
    </g>
   </g>
   <g id="patch_5">
    <path d="M 421.68 361.8 
L 466.32 361.8 
L 466.32 311.4 
L 421.68 311.4 
L 421.68 361.8 
z
" clip-path="url(#p862b0d5ff1)" style="fill: #f05076; stroke: #000000; stroke-linejoin: miter"/>
   </g>
   <g id="line2d_20">
    <path d="M 444 361.8 
L 444 369.36 
" clip-path="url(#p862b0d5ff1)" style="fill: none; stroke: #000000; stroke-linecap: square"/>
   </g>
   <g id="line2d_21">
    <path d="M 444 311.4 
L 444 240.84 
" clip-path="url(#p862b0d5ff1)" style="fill: none; stroke: #000000; stroke-linecap: square"/>
   </g>
   <g id="line2d_22">
    <path d="M 432.84 369.36 
L 455.16 369.36 
" clip-path="url(#p862b0d5ff1)" style="fill: none; stroke: #000000; stroke-linecap: square"/>
   </g>
   <g id="line2d_23">
    <path d="M 432.84 240.84 
L 455.16 240.84 
" clip-path="url(#p862b0d5ff1)" style="fill: none; stroke: #000000; stroke-linecap: square"/>
   </g>
   <g id="line2d_24">
    <g clip-path="url(#p862b0d5ff1)">
     <use xlink:href="#m0ff876d234" x="444" y="205.56" style="fill-opacity: 0; stroke: #000000"/>
     <use xlink:href="#m0ff876d234" x="444" y="82.08" style="fill-opacity: 0; stroke: #000000"/>
     <use xlink:href="#m0ff876d234" x="444" y="122.4" style="fill-opacity: 0; stroke: #000000"/>
     <use xlink:href="#m0ff876d234" x="444" y="182.88" style="fill-opacity: 0; stroke: #000000"/>
     <use xlink:href="#m0ff876d234" x="444" y="205.56" style="fill-opacity: 0; stroke: #000000"/>
     <use xlink:href="#m0ff876d234" x="444" y="228.24" style="fill-opacity: 0; stroke: #000000"/>
     <use xlink:href="#m0ff876d234" x="444" y="66.96" style="fill-opacity: 0; stroke: #000000"/>
     <use xlink:href="#m0ff876d234" x="444" y="198" style="fill-opacity: 0; stroke: #000000"/>
     <use xlink:href="#m0ff876d234" x="444" y="220.68" style="fill-opacity: 0; stroke: #000000"/>
     <use xlink:href="#m0ff876d234" x="444" y="192.96" style="fill-opacity: 0; stroke: #000000"/>
     <use xlink:href="#m0ff876d234" x="444" y="165.24" style="fill-opacity: 0; stroke: #000000"/>
     <use xlink:href="#m0ff876d234" x="444" y="155.16" style="fill-opacity: 0; stroke: #000000"/>
     <use xlink:href="#m0ff876d234" x="444" y="167.76" style="fill-opacity: 0; stroke: #000000"/>
     <use xlink:href="#m0ff876d234" x="444" y="132.48" style="fill-opacity: 0; stroke: #000000"/>
     <use xlink:href="#m0ff876d234" x="444" y="172.8" style="fill-opacity: 0; stroke: #000000"/>
     <use xlink:href="#m0ff876d234" x="444" y="198" style="fill-opacity: 0; stroke: #000000"/>
     <use xlink:href="#m0ff876d234" x="444" y="175.32" style="fill-opacity: 0; stroke: #000000"/>
     <use xlink:href="#m0ff876d234" x="444" y="205.56" style="fill-opacity: 0; stroke: #000000"/>
     <use xlink:href="#m0ff876d234" x="444" y="97.2" style="fill-opacity: 0; stroke: #000000"/>
     <use xlink:href="#m0ff876d234" x="444" y="87.12" style="fill-opacity: 0; stroke: #000000"/>
     <use xlink:href="#m0ff876d234" x="444" y="190.44" style="fill-opacity: 0; stroke: #000000"/>
     <use xlink:href="#m0ff876d234" x="444" y="177.84" style="fill-opacity: 0; stroke: #000000"/>
     <use xlink:href="#m0ff876d234" x="444" y="225.72" style="fill-opacity: 0; stroke: #000000"/>
     <use xlink:href="#m0ff876d234" x="444" y="140.04" style="fill-opacity: 0; stroke: #000000"/>
     <use xlink:href="#m0ff876d234" x="444" y="200.52" style="fill-opacity: 0; stroke: #000000"/>
     <use xlink:href="#m0ff876d234" x="444" y="137.52" style="fill-opacity: 0; stroke: #000000"/>
     <use xlink:href="#m0ff876d234" x="444" y="213.12" style="fill-opacity: 0; stroke: #000000"/>
     <use xlink:href="#m0ff876d234" x="444" y="228.24" style="fill-opacity: 0; stroke: #000000"/>
     <use xlink:href="#m0ff876d234" x="444" y="135" style="fill-opacity: 0; stroke: #000000"/>
     <use xlink:href="#m0ff876d234" x="444" y="145.08" style="fill-opacity: 0; stroke: #000000"/>
     <use xlink:href="#m0ff876d234" x="444" y="112.32" style="fill-opacity: 0; stroke: #000000"/>
     <use xlink:href="#m0ff876d234" x="444" y="132.48" style="fill-opacity: 0; stroke: #000000"/>
     <use xlink:href="#m0ff876d234" x="444" y="223.2" style="fill-opacity: 0; stroke: #000000"/>
     <use xlink:href="#m0ff876d234" x="444" y="210.6" style="fill-opacity: 0; stroke: #000000"/>
     <use xlink:href="#m0ff876d234" x="444" y="187.92" style="fill-opacity: 0; stroke: #000000"/>
     <use xlink:href="#m0ff876d234" x="444" y="233.28" style="fill-opacity: 0; stroke: #000000"/>
     <use xlink:href="#m0ff876d234" x="444" y="215.64" style="fill-opacity: 0; stroke: #000000"/>
     <use xlink:href="#m0ff876d234" x="444" y="84.6" style="fill-opacity: 0; stroke: #000000"/>
     <use xlink:href="#m0ff876d234" x="444" y="107.28" style="fill-opacity: 0; stroke: #000000"/>
     <use xlink:href="#m0ff876d234" x="444" y="97.2" style="fill-opacity: 0; stroke: #000000"/>
     <use xlink:href="#m0ff876d234" x="444" y="170.28" style="fill-opacity: 0; stroke: #000000"/>
     <use xlink:href="#m0ff876d234" x="444" y="213.12" style="fill-opacity: 0; stroke: #000000"/>
     <use xlink:href="#m0ff876d234" x="444" y="175.32" style="fill-opacity: 0; stroke: #000000"/>
     <use xlink:href="#m0ff876d234" x="444" y="102.24" style="fill-opacity: 0; stroke: #000000"/>
     <use xlink:href="#m0ff876d234" x="444" y="182.88" style="fill-opacity: 0; stroke: #000000"/>
     <use xlink:href="#m0ff876d234" x="444" y="87.12" style="fill-opacity: 0; stroke: #000000"/>
     <use xlink:href="#m0ff876d234" x="444" y="94.68" style="fill-opacity: 0; stroke: #000000"/>
     <use xlink:href="#m0ff876d234" x="444" y="200.52" style="fill-opacity: 0; stroke: #000000"/>
    </g>
   </g>
   <g id="line2d_25">
    <path d="M 124.08 228.24 
L 168.72 228.24 
" clip-path="url(#p862b0d5ff1)" style="fill: none; stroke: #000000"/>
   </g>
   <g id="line2d_26">
    <path d="M 272.88 356.76 
L 317.52 356.76 
" clip-path="url(#p862b0d5ff1)" style="fill: none; stroke: #000000"/>
   </g>
   <g id="line2d_27">
    <path d="M 421.68 346.68 
L 466.32 346.68 
" clip-path="url(#p862b0d5ff1)" style="fill: none; stroke: #000000"/>
   </g>
   <g id="patch_6">
    <path d="M 72 384.48 
L 72 51.84 
" style="fill: none; stroke: #000000; stroke-width: 0.8; stroke-linejoin: miter; stroke-linecap: square"/>
   </g>
   <g id="patch_7">
    <path d="M 518.4 384.48 
L 518.4 51.84 
" style="fill: none; stroke: #000000; stroke-width: 0.8; stroke-linejoin: miter; stroke-linecap: square"/>
   </g>
   <g id="patch_8">
    <path d="M 72 384.48 
L 518.4 384.48 
" style="fill: none; stroke: #000000; stroke-width: 0.8; stroke-linejoin: miter; stroke-linecap: square"/>
   </g>
   <g id="patch_9">
    <path d="M 72 51.84 
L 518.4 51.84 
" style="fill: none; stroke: #000000; stroke-width: 0.8; stroke-linejoin: miter; stroke-linecap: square"/>
   </g>
   <g id="text_10">
    <!-- Text Length Distribution (Box Plot) -->
    <g transform="translate(186.3585 45.84) scale(0.144 -0.144)">
     <defs>
      <path id="ArialMT-54" d="M 1659 0 
L 1659 4041 
L 150 4041 
L 150 4581 
L 3781 4581 
L 3781 4041 
L 2266 4041 
L 2266 0 
L 1659 0 
z
" transform="scale(0.015625)"/>
      <path id="ArialMT-78" d="M 47 0 
L 1259 1725 
L 138 3319 
L 841 3319 
L 1350 2541 
Q 1494 2319 1581 2169 
Q 1719 2375 1834 2534 
L 2394 3319 
L 3066 3319 
L 1919 1756 
L 3153 0 
L 2463 0 
L 1781 1031 
L 1600 1309 
L 728 0 
L 47 0 
z
" transform="scale(0.015625)"/>
      <path id="ArialMT-74" d="M 1650 503 
L 1731 6 
Q 1494 -44 1306 -44 
Q 1000 -44 831 53 
Q 663 150 594 308 
Q 525 466 525 972 
L 525 2881 
L 113 2881 
L 113 3319 
L 525 3319 
L 525 4141 
L 1084 4478 
L 1084 3319 
L 1650 3319 
L 1650 2881 
L 1084 2881 
L 1084 941 
Q 1084 700 1114 631 
Q 1144 563 1211 522 
Q 1278 481 1403 481 
Q 1497 481 1650 503 
z
" transform="scale(0.015625)"/>
      <path id="ArialMT-20" transform="scale(0.015625)"/>
      <path id="ArialMT-4c" d="M 469 0 
L 469 4581 
L 1075 4581 
L 1075 541 
L 3331 541 
L 3331 0 
L 469 0 
z
" transform="scale(0.015625)"/>
      <path id="ArialMT-68" d="M 422 0 
L 422 4581 
L 984 4581 
L 984 2938 
Q 1378 3394 1978 3394 
Q 2347 3394 2619 3248 
Q 2891 3103 3008 2847 
Q 3125 2591 3125 2103 
L 3125 0 
L 2563 0 
L 2563 2103 
Q 2563 2525 2380 2717 
Q 2197 2909 1863 2909 
Q 1613 2909 1392 2779 
Q 1172 2650 1078 2428 
Q 984 2206 984 1816 
L 984 0 
L 422 0 
z
" transform="scale(0.015625)"/>
      <path id="ArialMT-44" d="M 494 0 
L 494 4581 
L 2072 4581 
Q 2606 4581 2888 4516 
Q 3281 4425 3559 4188 
Q 3922 3881 4101 3404 
Q 4281 2928 4281 2316 
Q 4281 1794 4159 1391 
Q 4038 988 3847 723 
Q 3656 459 3429 307 
Q 3203 156 2883 78 
Q 2563 0 2147 0 
L 494 0 
z
M 1100 541 
L 2078 541 
Q 2531 541 2789 625 
Q 3047 709 3200 863 
Q 3416 1078 3536 1442 
Q 3656 1806 3656 2325 
Q 3656 3044 3420 3430 
Q 3184 3816 2847 3947 
Q 2603 4041 2063 4041 
L 1100 4041 
L 1100 541 
z
" transform="scale(0.015625)"/>
      <path id="ArialMT-73" d="M 197 991 
L 753 1078 
Q 800 744 1014 566 
Q 1228 388 1613 388 
Q 2000 388 2187 545 
Q 2375 703 2375 916 
Q 2375 1106 2209 1216 
Q 2094 1291 1634 1406 
Q 1016 1563 777 1677 
Q 538 1791 414 1992 
Q 291 2194 291 2438 
Q 291 2659 392 2848 
Q 494 3038 669 3163 
Q 800 3259 1026 3326 
Q 1253 3394 1513 3394 
Q 1903 3394 2198 3281 
Q 2494 3169 2634 2976 
Q 2775 2784 2828 2463 
L 2278 2388 
Q 2241 2644 2061 2787 
Q 1881 2931 1553 2931 
Q 1166 2931 1000 2803 
Q 834 2675 834 2503 
Q 834 2394 903 2306 
Q 972 2216 1119 2156 
Q 1203 2125 1616 2013 
Q 2213 1853 2448 1751 
Q 2684 1650 2818 1456 
Q 2953 1263 2953 975 
Q 2953 694 2789 445 
Q 2625 197 2315 61 
Q 2006 -75 1616 -75 
Q 969 -75 630 194 
Q 291 463 197 991 
z
" transform="scale(0.015625)"/>
      <path id="ArialMT-72" d="M 416 0 
L 416 3319 
L 922 3319 
L 922 2816 
Q 1116 3169 1280 3281 
Q 1444 3394 1641 3394 
Q 1925 3394 2219 3213 
L 2025 2691 
Q 1819 2813 1613 2813 
Q 1428 2813 1281 2702 
Q 1134 2591 1072 2394 
Q 978 2094 978 1738 
L 978 0 
L 416 0 
z
" transform="scale(0.015625)"/>
      <path id="ArialMT-62" d="M 941 0 
L 419 0 
L 419 4581 
L 981 4581 
L 981 2947 
Q 1338 3394 1891 3394 
Q 2197 3394 2470 3270 
Q 2744 3147 2920 2923 
Q 3097 2700 3197 2384 
Q 3297 2069 3297 1709 
Q 3297 856 2875 390 
Q 2453 -75 1863 -75 
Q 1275 -75 941 416 
L 941 0 
z
M 934 1684 
Q 934 1088 1097 822 
Q 1363 388 1816 388 
Q 2184 388 2453 708 
Q 2722 1028 2722 1663 
Q 2722 2313 2464 2622 
Q 2206 2931 1841 2931 
Q 1472 2931 1203 2611 
Q 934 2291 934 1684 
z
" transform="scale(0.015625)"/>
      <path id="ArialMT-75" d="M 2597 0 
L 2597 488 
Q 2209 -75 1544 -75 
Q 1250 -75 995 37 
Q 741 150 617 320 
Q 494 491 444 738 
Q 409 903 409 1263 
L 409 3319 
L 972 3319 
L 972 1478 
Q 972 1038 1006 884 
Q 1059 663 1231 536 
Q 1403 409 1656 409 
Q 1909 409 2131 539 
Q 2353 669 2445 892 
Q 2538 1116 2538 1541 
L 2538 3319 
L 3100 3319 
L 3100 0 
L 2597 0 
z
" transform="scale(0.015625)"/>
      <path id="ArialMT-6f" d="M 213 1659 
Q 213 2581 725 3025 
Q 1153 3394 1769 3394 
Q 2453 3394 2887 2945 
Q 3322 2497 3322 1706 
Q 3322 1066 3130 698 
Q 2938 331 2570 128 
Q 2203 -75 1769 -75 
Q 1072 -75 642 372 
Q 213 819 213 1659 
z
M 791 1659 
Q 791 1022 1069 705 
Q 1347 388 1769 388 
Q 2188 388 2466 706 
Q 2744 1025 2744 1678 
Q 2744 2294 2464 2611 
Q 2184 2928 1769 2928 
Q 1347 2928 1069 2612 
Q 791 2297 791 1659 
z
" transform="scale(0.015625)"/>
      <path id="ArialMT-28" d="M 1497 -1347 
Q 1031 -759 709 28 
Q 388 816 388 1659 
Q 388 2403 628 3084 
Q 909 3875 1497 4659 
L 1900 4659 
Q 1522 4009 1400 3731 
Q 1209 3300 1100 2831 
Q 966 2247 966 1656 
Q 966 153 1900 -1347 
L 1497 -1347 
z
" transform="scale(0.015625)"/>
      <path id="ArialMT-42" d="M 469 0 
L 469 4581 
L 2188 4581 
Q 2713 4581 3030 4442 
Q 3347 4303 3526 4014 
Q 3706 3725 3706 3409 
Q 3706 3116 3547 2856 
Q 3388 2597 3066 2438 
Q 3481 2316 3704 2022 
Q 3928 1728 3928 1328 
Q 3928 1006 3792 729 
Q 3656 453 3456 303 
Q 3256 153 2954 76 
Q 2653 0 2216 0 
L 469 0 
z
M 1075 2656 
L 2066 2656 
Q 2469 2656 2644 2709 
Q 2875 2778 2992 2937 
Q 3109 3097 3109 3338 
Q 3109 3566 3000 3739 
Q 2891 3913 2687 3977 
Q 2484 4041 1991 4041 
L 1075 4041 
L 1075 2656 
z
M 1075 541 
L 2216 541 
Q 2509 541 2628 563 
Q 2838 600 2978 687 
Q 3119 775 3209 942 
Q 3300 1109 3300 1328 
Q 3300 1584 3169 1773 
Q 3038 1963 2805 2039 
Q 2572 2116 2134 2116 
L 1075 2116 
L 1075 541 
z
" transform="scale(0.015625)"/>
      <path id="ArialMT-50" d="M 494 0 
L 494 4581 
L 2222 4581 
Q 2678 4581 2919 4538 
Q 3256 4481 3484 4323 
Q 3713 4166 3852 3881 
Q 3991 3597 3991 3256 
Q 3991 2672 3619 2267 
Q 3247 1863 2275 1863 
L 1100 1863 
L 1100 0 
L 494 0 
z
M 1100 2403 
L 2284 2403 
Q 2872 2403 3119 2622 
Q 3366 2841 3366 3238 
Q 3366 3525 3220 3729 
Q 3075 3934 2838 4000 
Q 2684 4041 2272 4041 
L 1100 4041 
L 1100 2403 
z
" transform="scale(0.015625)"/>
      <path id="ArialMT-29" d="M 791 -1347 
L 388 -1347 
Q 1322 153 1322 1656 
Q 1322 2244 1188 2822 
Q 1081 3291 891 3722 
Q 769 4003 388 4659 
L 791 4659 
Q 1378 3875 1659 3084 
Q 1900 2403 1900 1659 
Q 1900 816 1576 28 
Q 1253 -759 791 -1347 
z
" transform="scale(0.015625)"/>
     </defs>
     <use xlink:href="#ArialMT-54"/>
     <use xlink:href="#ArialMT-65" x="49.958984"/>
     <use xlink:href="#ArialMT-78" x="105.574219"/>
     <use xlink:href="#ArialMT-74" x="155.574219"/>
     <use xlink:href="#ArialMT-20" x="183.357422"/>
     <use xlink:href="#ArialMT-4c" x="211.140625"/>
     <use xlink:href="#ArialMT-65" x="266.755859"/>
     <use xlink:href="#ArialMT-6e" x="322.371094"/>
     <use xlink:href="#ArialMT-67" x="377.986328"/>
     <use xlink:href="#ArialMT-74" x="433.601562"/>
     <use xlink:href="#ArialMT-68" x="461.384766"/>
     <use xlink:href="#ArialMT-20" x="517"/>
     <use xlink:href="#ArialMT-44" x="544.783203"/>
     <use xlink:href="#ArialMT-69" x="617"/>
     <use xlink:href="#ArialMT-73" x="639.216797"/>
     <use xlink:href="#ArialMT-74" x="689.216797"/>
     <use xlink:href="#ArialMT-72" x="717"/>
     <use xlink:href="#ArialMT-69" x="750.300781"/>
     <use xlink:href="#ArialMT-62" x="772.517578"/>
     <use xlink:href="#ArialMT-75" x="828.132812"/>
     <use xlink:href="#ArialMT-74" x="883.748047"/>
     <use xlink:href="#ArialMT-69" x="911.53125"/>
     <use xlink:href="#ArialMT-6f" x="933.748047"/>
     <use xlink:href="#ArialMT-6e" x="989.363281"/>
     <use xlink:href="#ArialMT-20" x="1044.978516"/>
     <use xlink:href="#ArialMT-28" x="1072.761719"/>
     <use xlink:href="#ArialMT-42" x="1106.0625"/>
     <use xlink:href="#ArialMT-6f" x="1172.761719"/>
     <use xlink:href="#ArialMT-78" x="1228.376953"/>
     <use xlink:href="#ArialMT-20" x="1278.376953"/>
     <use xlink:href="#ArialMT-50" x="1306.160156"/>
     <use xlink:href="#ArialMT-6c" x="1372.859375"/>
     <use xlink:href="#ArialMT-6f" x="1395.076172"/>
     <use xlink:href="#ArialMT-74" x="1450.691406"/>
     <use xlink:href="#ArialMT-29" x="1478.474609"/>
    </g>
   </g>
  </g>
 </g>
 <defs>
  <clipPath id="p862b0d5ff1">
   <rect x="72" y="51.84" width="446.4" height="332.64"/>
  </clipPath>
 </defs>
</svg>
